<svg width="256" height="256" viewBox="0 0 256 256" fill="none" xmlns="http://www.w3.org/2000/svg">
  <rect width="256" height="256" fill="#43358E"/>
  <circle cx="128" cy="128" r="94" stroke="white" stroke-width="16"/>
  <path d="M206 128H156" stroke="white" stroke-width="16" stroke-linecap="round"/>
  <path d="M50 128H96" stroke="white" stroke-width="16" stroke-linecap="round"/>
  <path d="M68 128C68 94.8629 94.8629 68 128 68C161.137 68 188 94.8629 188 128" stroke="white" stroke-width="16" stroke-linecap="round"/>
  <path d="M68 128C68 161.137 94.8629 188 128 188C161.137 188 188 161.137 188 128" stroke="white" stroke-width="16" stroke-linecap="round"/>
  <path d="M95 128C95 109.775 109.775 95 128 95C146.225 95 161 109.775 161 128" stroke="white" stroke-width="16" stroke-linecap="round"/>
  <path d="M95 128C95 146.225 109.775 161 128 161C146.225 161 161 146.225 161 128" stroke="white" stroke-width="16" stroke-linecap="round"/>
  <path d="M95 128H128" stroke="white" stroke-width="16" stroke-linecap="round"/>
  <path d="M128 126C128 112.193 139.193 101 153 101V117C148.029 117 144 121.029 144 126V145C144 153.284 137.284 160 129 160H122C108.745 160 98 149.255 98 136C98 122.745 108.745 112 122 112H144" stroke="white" stroke-width="16" stroke-linecap="round" stroke-linejoin="round"/>
</svg>
